<?xml version="1.0" standalone="no"?>
<!DOCTYPE svg PUBLIC "-//W3C//DTD SVG 20010904//EN"
 "http://www.w3.org/TR/2001/REC-SVG-20010904/DTD/svg10.dtd">
<svg version="1.0" xmlns="http://www.w3.org/2000/svg"
 width="180.000000pt" height="180.000000pt" viewBox="0 0 180.000000 180.000000"
 preserveAspectRatio="xMidYMid meet">
<metadata>
Created by potrace 1.16, written by Peter Selinger 2001-2019
</metadata>
<g transform="translate(0.000000,180.000000) scale(0.100000,-0.100000)"
fill="#000000" stroke="none">
<path d="M289 1537 c-19 -12 -44 -42 -56 -67 -21 -41 -23 -58 -24 -245 -1
-110 -4 -188 -6 -172 l-4 27 -100 0 -99 0 0 -540 0 -540 900 0 900 0 0 540 0
540 -99 0 -100 0 -4 -27 c-2 -16 -5 62 -6 172 -1 187 -3 204 -23 245 -13 25
-38 55 -57 67 l-34 23 -577 0 -577 0 -34 -23z m1181 -106 c6 -12 10 -133 10
-322 0 -267 -2 -305 -17 -321 -15 -17 -43 -18 -460 -18 l-443 0 0 74 c0 99 -9
106 -142 106 l-98 0 0 231 c0 140 4 238 10 250 10 18 27 19 570 19 543 0 560
-1 570 -19z m-925 -906 l0 -300 -217 -3 -218 -2 0 305 0 305 218 -2 217 -3 0
-300z m418 153 c23 -31 18 -67 -15 -98 -38 -35 -90 -23 -116 27 -17 31 -15 47
9 77 29 37 92 34 122 -6z"/>
<path d="M771 1223 c-51 -27 -73 -75 -68 -146 6 -65 48 -149 90 -181 24 -18
30 -18 67 -6 33 11 51 11 86 2 57 -15 80 -4 123 58 l34 49 -30 25 c-48 41 -51
119 -5 154 15 11 14 14 -6 35 -18 17 -32 21 -67 19 -91 -6 -131 -5 -160 2 -21
5 -40 1 -64 -11z"/>
<path d="M241 573 c-29 -20 -36 -71 -16 -121 22 -53 49 -74 81 -62 15 6 34 6
50 0 22 -9 30 -6 55 21 l29 31 -20 25 c-24 31 -25 51 -5 80 21 29 9 35 -80 38
-51 2 -80 -2 -94 -12z"/>
</g>
</svg>
